<svg xmlns="http://www.w3.org/2000/svg" width="1818.661" height="1281.849" viewBox="0 0 1818.661 1281.849">
  <g id="g10" transform="translate(0 1281.851)">
    <g id="g12">
      <path id="path14" d="M249.278-678.149c-98.413,0-178.473,80.062-178.473,178.485,0,98.4,80.06,178.465,178.473,178.465S427.754-401.26,427.754-499.664C427.754-598.086,347.692-678.149,249.278-678.149Zm0,367.831c-104.406,0-189.354-84.949-189.354-189.346,0-104.416,84.948-189.366,189.354-189.366s189.357,84.95,189.357,189.366c0,104.4-84.95,189.346-189.357,189.346" fill="#3a44a2"/>
      <path id="path16" d="M130.734-443.678H102.674L0-728.4H28.06L130.734-443.678" fill="#bec3e8"/>
      <path id="path18" d="M208.535-443.678h-28.06L77.8-728.4h28.06L208.535-443.678" fill="#bec3e8"/>
      <path id="path20" d="M286.339-443.678H258.278L155.6-728.4h28.06L286.339-443.678" fill="#bec3e8"/>
      <path id="path22" d="M364.14-443.678H336.082L233.407-728.4h28.06L364.14-443.678" fill="#bec3e8"/>
      <path id="path24" d="M263.774-705.517C16.441-277.7,321.47,83.013,620.864-173.54s640.69-109.489,796.666,9.4c287.439,219.075,551.492-214,300.879-409.568-298.012-232.57-249.173-810.113-701.386-692.524S332.545-824.474,263.774-705.517" fill="#f7f8fd"/>
      <path id="path26" d="M438.944-999.411h0v.105a1.807,1.807,0,0,1-1.808,1.808,1.808,1.808,0,0,1-1.809-1.808v-.105a1.808,1.808,0,0,1,1.809-1.809,1.807,1.807,0,0,1,1.808,1.809" fill="#fabbd1"/>
      <path id="path28" d="M1628.263-582.781l8.947.107-8.947-.107" fill="#100f0d"/>
      <path id="path30" d="M456.435-1121.833a5.383,5.383,0,0,1-5.384,5.384,5.384,5.384,0,0,1-5.383-5.384,5.384,5.384,0,0,1,5.383-5.384,5.383,5.383,0,0,1,5.384,5.384" fill="#3a44a2"/>
      <path id="path32" d="M495.343-1121.833a5.384,5.384,0,0,1-5.383,5.384,5.384,5.384,0,0,1-5.384-5.384,5.384,5.384,0,0,1,5.384-5.384,5.384,5.384,0,0,1,5.383,5.384" fill="#3a44a2"/>
      <path id="path34" d="M534.251-1121.833a5.383,5.383,0,0,1-5.383,5.384,5.384,5.384,0,0,1-5.384-5.384,5.384,5.384,0,0,1,5.384-5.384,5.383,5.383,0,0,1,5.383,5.384" fill="#3a44a2"/>
      <path id="path36" d="M573.16-1121.833a5.384,5.384,0,0,1-5.384,5.384,5.384,5.384,0,0,1-5.384-5.384,5.384,5.384,0,0,1,5.384-5.384,5.384,5.384,0,0,1,5.384,5.384" fill="#3a44a2"/>
      <path id="path38" d="M612.068-1121.833a5.384,5.384,0,0,1-5.384,5.384,5.384,5.384,0,0,1-5.384-5.384,5.384,5.384,0,0,1,5.384-5.384,5.384,5.384,0,0,1,5.384,5.384" fill="#3a44a2"/>
      <path id="path40" d="M456.435-1078.941a5.383,5.383,0,0,1-5.384,5.383,5.384,5.384,0,0,1-5.383-5.383,5.383,5.383,0,0,1,5.383-5.384,5.382,5.382,0,0,1,5.384,5.384" fill="#3a44a2"/>
      <path id="path42" d="M495.343-1078.941a5.384,5.384,0,0,1-5.383,5.383,5.384,5.384,0,0,1-5.384-5.383,5.383,5.383,0,0,1,5.384-5.384,5.383,5.383,0,0,1,5.383,5.384" fill="#3a44a2"/>
      <path id="path44" d="M534.251-1078.941a5.383,5.383,0,0,1-5.383,5.383,5.384,5.384,0,0,1-5.384-5.383,5.383,5.383,0,0,1,5.384-5.384,5.382,5.382,0,0,1,5.383,5.384" fill="#3a44a2"/>
      <path id="path46" d="M573.16-1078.941a5.384,5.384,0,0,1-5.384,5.383,5.384,5.384,0,0,1-5.384-5.383,5.383,5.383,0,0,1,5.384-5.384,5.383,5.383,0,0,1,5.384,5.384" fill="#3a44a2"/>
      <path id="path48" d="M612.068-1078.941a5.384,5.384,0,0,1-5.384,5.383,5.384,5.384,0,0,1-5.384-5.383,5.383,5.383,0,0,1,5.384-5.384,5.383,5.383,0,0,1,5.384,5.384" fill="#3a44a2"/>
      <path id="path50" d="M456.435-1036.052a5.383,5.383,0,0,1-5.384,5.384,5.384,5.384,0,0,1-5.383-5.384,5.384,5.384,0,0,1,5.383-5.383,5.383,5.383,0,0,1,5.384,5.383" fill="#3a44a2"/>
      <path id="path52" d="M495.343-1036.052a5.384,5.384,0,0,1-5.383,5.384,5.384,5.384,0,0,1-5.384-5.384,5.384,5.384,0,0,1,5.384-5.383,5.384,5.384,0,0,1,5.383,5.383" fill="#3a44a2"/>
      <path id="path54" d="M534.251-1036.052a5.383,5.383,0,0,1-5.383,5.384,5.384,5.384,0,0,1-5.384-5.384,5.384,5.384,0,0,1,5.384-5.383,5.383,5.383,0,0,1,5.383,5.383" fill="#3a44a2"/>
      <path id="path56" d="M573.16-1036.052a5.384,5.384,0,0,1-5.384,5.384,5.384,5.384,0,0,1-5.384-5.384,5.384,5.384,0,0,1,5.384-5.383,5.384,5.384,0,0,1,5.384,5.383" fill="#3a44a2"/>
      <path id="path58" d="M612.068-1036.052a5.384,5.384,0,0,1-5.384,5.384,5.384,5.384,0,0,1-5.384-5.384,5.384,5.384,0,0,1,5.384-5.383,5.384,5.384,0,0,1,5.384,5.383" fill="#3a44a2"/>
      <path id="path60" d="M1346.437-336.647a5.387,5.387,0,0,1-5.387-5.384,5.385,5.385,0,0,1,5.387-5.383,5.385,5.385,0,0,1,5.387,5.383,5.387,5.387,0,0,1-5.387,5.384" fill="#3a44a2"/>
      <path id="path62" d="M1346.437-297.741a5.385,5.385,0,0,1-5.387-5.383,5.386,5.386,0,0,1,5.387-5.384,5.387,5.387,0,0,1,5.387,5.384,5.385,5.385,0,0,1-5.387,5.383" fill="#3a44a2"/>
      <path id="path64" d="M1346.437-258.831a5.387,5.387,0,0,1-5.387-5.384,5.386,5.386,0,0,1,5.387-5.384,5.386,5.386,0,0,1,5.387,5.384,5.386,5.386,0,0,1-5.387,5.384" fill="#3a44a2"/>
      <path id="path66" d="M1303.546-336.647a5.385,5.385,0,0,1-5.384-5.384,5.383,5.383,0,0,1,5.384-5.383,5.383,5.383,0,0,1,5.384,5.383,5.385,5.385,0,0,1-5.384,5.384" fill="#3a44a2"/>
      <path id="path68" d="M1303.546-297.741a5.383,5.383,0,0,1-5.384-5.383,5.384,5.384,0,0,1,5.384-5.384,5.384,5.384,0,0,1,5.384,5.384,5.383,5.383,0,0,1-5.384,5.383" fill="#3a44a2"/>
      <path id="path70" d="M1303.546-258.831a5.384,5.384,0,0,1-5.384-5.384,5.383,5.383,0,0,1,5.384-5.384,5.383,5.383,0,0,1,5.384,5.384,5.384,5.384,0,0,1-5.384,5.384" fill="#3a44a2"/>
      <path id="path72" d="M1303.546-219.923a5.384,5.384,0,0,1-5.384-5.384,5.384,5.384,0,0,1,5.384-5.384,5.384,5.384,0,0,1,5.384,5.384,5.384,5.384,0,0,1-5.384,5.384" fill="#3a44a2"/>
      <path id="path74" d="M1303.546-181.017a5.383,5.383,0,0,1-5.384-5.383,5.383,5.383,0,0,1,5.384-5.383,5.383,5.383,0,0,1,5.384,5.383,5.383,5.383,0,0,1-5.384,5.383" fill="#3a44a2"/>
      <path id="path76" d="M1260.656-258.831a5.383,5.383,0,0,1-5.383-5.384,5.382,5.382,0,0,1,5.383-5.384,5.382,5.382,0,0,1,5.383,5.384,5.383,5.383,0,0,1-5.383,5.384" fill="#3a44a2"/>
      <path id="path78" d="M1260.656-219.923a5.383,5.383,0,0,1-5.383-5.384,5.383,5.383,0,0,1,5.383-5.384,5.383,5.383,0,0,1,5.383,5.384,5.383,5.383,0,0,1-5.383,5.384" fill="#3a44a2"/>
      <path id="path80" d="M1260.656-181.017a5.382,5.382,0,0,1-5.383-5.383,5.382,5.382,0,0,1,5.383-5.383,5.382,5.382,0,0,1,5.383,5.383,5.382,5.382,0,0,1-5.383,5.383" fill="#3a44a2"/>
      <path id="path82" d="M1624.6-736.029c-91.987,0-166.546,55.333-166.546,123.6,0,28.955,13.52,55.524,36,76.59l-35.947,64a8.613,8.613,0,0,0,10.533,12.291l98.64-36.968a217.84,217.84,0,0,0,57.32,7.676c91.987,0,166.546-55.336,166.546-123.592s-74.56-123.6-166.546-123.6" fill="#fabbd1"/>
      <path id="path84" d="M1280.128-758.989l2.689-2.689v180.412l-2.689-2.689,404.708-.105-2.68,2.691v-180.2l2.68,2.691Zm0-5.379h0l404.708.105,2.693,2.689v180.2l-2.693,2.689-404.708.1-2.691-2.689V-761.678l2.691-2.689" fill="#3a44a2"/>
      <path id="path86" d="M1319.066-721.41v0l114.61.007a7.924,7.924,0,0,1,7.92,7.924,7.9,7.9,0,0,1-7.907,7.905v.013l-114.617-.02a7.928,7.928,0,0,1-7.926-7.924,7.911,7.911,0,0,1,7.919-7.905v0" fill="#3a44a2"/>
      <path id="path88" d="M1319.062-678.334h0l326.827.105a7.907,7.907,0,0,1,7.907,7.911,7.906,7.906,0,0,1-7.907,7.912l-326.834-.105a7.91,7.91,0,0,1-7.908-7.911,7.916,7.916,0,0,1,7.915-7.912" fill="#3a44a2"/>
      <path id="path90" d="M1319.066-637.456h0l245.1.007a7.907,7.907,0,0,1,7.907,7.912,7.906,7.906,0,0,1-7.907,7.911l-245.1-.005a7.912,7.912,0,0,1-7.912-7.912,7.913,7.913,0,0,1,7.912-7.912" fill="#3a44a2"/>
      <path id="path92" d="M1518.556-628.445l-3.013.1v-.1l3.013.1v-.1" fill="#86d8ef"/>
      <path id="path94" d="M1089.5-1185.814l367.431.092a23.929,23.929,0,0,1,23.92,23.933v136.2a23.928,23.928,0,0,1-23.92,23.933l-367.431.093a23.931,23.931,0,0,1-23.939-23.932v-136.389a23.93,23.93,0,0,1,23.939-23.932" fill="#fabbd1"/>
      <path id="path96" d="M1012.289-1138.017l2.691-2.691v180.4L1012.289-963,1417-963.1l-2.693,2.691V-1140.6l2.693,2.689Zm0-5.38h0l404.707.105,2.68,2.691v180.189l-2.68,2.689-404.707.1-2.688-2.689v-180.4l2.688-2.689" fill="#3a44a2"/>
      <path id="path98" d="M1051.229-1100.439v0l114.616.007a7.919,7.919,0,0,1,7.911,7.911,7.906,7.906,0,0,1-7.911,7.905v.02l-114.616-.027a7.9,7.9,0,0,1-7.919-7.9,7.935,7.935,0,0,1,7.919-7.917v0" fill="#3a44a2"/>
      <path id="path100" d="M1051.22-1057.363h0l326.83.105a7.906,7.906,0,0,1,7.907,7.911,7.918,7.918,0,0,1-7.92,7.912l-326.823-.105a7.911,7.911,0,0,1-7.908-7.912,7.915,7.915,0,0,1,7.915-7.911" fill="#3a44a2"/>
      <path id="path102" d="M1051.216-1016.5h0l245.111.007a7.913,7.913,0,0,1,7.912,7.911,7.912,7.912,0,0,1-7.912,7.912l-245.111-.007a7.912,7.912,0,0,1-7.911-7.912,7.913,7.913,0,0,1,7.911-7.911" fill="#3a44a2"/>
      <path id="path104" d="M1250.72-1007.482l-3.019.105v-.105l3.019.105v-.105" fill="#86d8ef"/>
      <path id="path106" d="M1366.81-1029.525v.007a2.8,2.8,0,0,0-.693-.105,2.392,2.392,0,0,0-2.2,1.355l-6.333,13.6-15.6.683a2.341,2.341,0,0,0-2.173,1.657,2.228,2.228,0,0,0,.92,2.519l13.333,9.069-5.933,18.157a2.263,2.263,0,0,0,.987,2.631,2.244,2.244,0,0,0,.573.257,2.463,2.463,0,0,0,2.32-.487l13.707-12.1,16.96,12.824a2.32,2.32,0,0,0,.76.383,2.433,2.433,0,0,0,2.16-.369,2.241,2.241,0,0,0,.747-2.723l-7.893-17.915,11.906-9.675a2.179,2.179,0,0,0,.8-1.328,2.3,2.3,0,0,0-1.627-2.629,2.677,2.677,0,0,0-.693-.1l-.013-.008-14.667-.925-5.867-13.456a2.4,2.4,0,0,0-1.48-1.323v0" fill="#3a44a2"/>
      <path id="path108" d="M841.7-187.258c-3.861,5.32-7.721,10.64-13.727,12.667a23.7,23.7,0,0,1-7.549,1.052,97.718,97.718,0,0,1-14.712-1.619L652.681-427.18c-44.28,13.455-88.562,26.9-124.529,26.9-13.073,0-25.047-1.776-35.521-5.971C453.326-422,435.072-471.816,478.424-516.8c28.252-29.317,82.659-56.569,136.732-56.569,28.9,0,57.709,7.785,82.37,27.205,70.805,55.75,107.492,207.323,144.176,358.9" fill="#f7a794"/>
      <path id="path110" d="M657.68-567.076l-.015.028a120.353,120.353,0,0,1,39.868,20.892l8.543,7.971C701.052-502.62,677.849-459.775,650-426.24c-56.214,16.967-91.972,24.887-107.269,25.305-8.3.219-16.151.856-23.661.356l-10.9-1.321a42.907,42.907,0,0,1-8.877-1.808,78.9,78.9,0,0,1-24.392-13.081,54.274,54.274,0,0,1-13.068-15.125l-4.452-8.952a59.763,59.763,0,0,1-4.005-19.992c-.5-14.337,4.393-29.344,15.468-44.615a99.686,99.686,0,0,1,19.355-20.5c19.248-14.843,32.316-22.261,37.912-24.905,19.881-9.379,40.769-16.953,63.674-20.545a163.164,163.164,0,0,1,34.105-1.683l16.967,1.932a140.6,140.6,0,0,1,16.817,4.1l-.015.028.015-.028" fill="#f24d7f"/>
      <path id="path112" d="M839.663-196.216c31.619,28.588,63.241,57.176,51.921,62.977a16.11,16.11,0,0,1-6.981,1.169c-18.783,0-61.852-14.2-81.986-25.9-23.369-13.588-15.836-23.8-8.3-34.013,10.283,4.971,20.559,9.944,28.032,9.944.48,0,.944-.021,1.4-.061,7.559-.7,11.739-7.405,15.915-14.112" fill="#f68aad"/>
      <path id="path114" d="M884.313-132.06a63.116,63.116,0,0,1-10.1-.976q-1.062-.176-2.145-.371a74.349,74.349,0,0,0,12.54,1.337c.3,0,.591,0,.876-.011q-.566.02-1.167.02m-18.627-2.633q-8.626-1.912-18.545-4.987c6.412,1.981,12.731,3.692,18.545,4.987m27.856-.451a.01.01,0,0,1,0-.007v0l0,0m.324-2.78s0-.008,0-.011v.011m-51.625-3.316q-9.918-3.246-19-6.944c6.041,2.453,12.517,4.817,19,6.944m50.472-.227c-.084-.177-.171-.357-.263-.539.087.169.171.339.252.505l.011.033m-2.192-3.819a68.92,68.92,0,0,0-4.213-5.631c.057.068.116.136.173.209a63.937,63.937,0,0,1,4.04,5.421M816-151.258q-.452-.2-.9-.4a119.651,119.651,0,0,1-12.019-6.045c3.671,2.105,8.068,4.285,12.919,6.447m-27.643-19.389a10.889,10.889,0,0,1-1.485-5.6,4.818,4.818,0,0,1,.264-2.747,12.21,12.21,0,0,0,1.221,8.348m.779-13.6.012-.028a17.369,17.369,0,0,1,1.529-2.564c-.556.86-1.076,1.723-1.541,2.592m6.848-6.929-.011-.005L753.463-261.2l.005,0,42.516,70.019" fill="#d8d7d5"/>
      <path id="path116" d="M753.464-261.2,652.68-427.179h0L753.469-261.2l-.005,0M650-426.24h0l.141-.169,1.805-.549c-.695.229-1.345.468-1.947.719h0M462.515-430.83q-.346-.542-.683-1.092l-.039-.077.024.039.021.045q.334.546.676,1.085m-5.579-11.219a56.76,56.76,0,0,1-2.987-11.9,58.007,58.007,0,0,0,1.672,7.851q.58,2.05,1.315,4.047m-3.481-17q-.048-.892-.073-1.793c.005.148.011.3.017.444.013.449.032.9.056,1.349m-.076-1.875a55.163,55.163,0,0,1,.4-9,58.037,58.037,0,0,0-.4,9" fill="#cbcac8"/>
      <path id="path118" d="M821.783-182.052c-7.011-.227-16.337-4.565-25.8-9.129L753.469-261.2,652.681-427.18h0l-.007-.008c-.247.076-.487.152-.724.229l-1.805.549c21.189-25.559,39.676-56.5,49.481-85.5q1.6-.736,3.217-1.5,8.846-4.118,17.9-9.04l4.52,5.7q-4.148,13.278-12.481,21.723L681.341-469.02q-6.116,6.55-2.025,16.461l44.851,62.673,14.193,23.825q4.01,5.348,18.44,42.808,26.126,79.874,32.777,93.069,16.33,33.608,21.3,37.092,1.744,4.14,10.907,11.04M461.818-431.96l-.024-.039-2.491-5.016,2.515,5.055m-6.2-14.135a58.024,58.024,0,0,1-1.672-7.851q-.352-2.514-.495-5.1c-.024-.448-.043-.9-.056-1.349a62.009,62.009,0,0,0,2.223,14.3" fill="#cd8b7b"/>
      <path id="path120" d="M467.083-424.6a61.07,61.07,0,0,1-4.568-6.233q-.342-.54-.676-1.085l-.021-.045-2.515-5.055-1.916-3.859q-.232-.586-.451-1.175-.736-2-1.315-4.047a62.008,62.008,0,0,1-2.223-14.3c-.007-.148-.012-.3-.017-.444v-.027c0-.017,0-.036,0-.055a58.029,58.029,0,0,1,.4-9,61.771,61.771,0,0,1,2.164-10.105,24.7,24.7,0,0,0,2.384,1.869,66.847,66.847,0,0,0-.913,7.517c-.2,2.209-.3,4.335-.3,6.369q0,1.324.053,2.6a42.568,42.568,0,0,0,1.289,8.972,119.37,119.37,0,0,0,8.624,28.1m182.056-1.383q-1.212-2.52-2.519-5-2.562-4.952-5.44-9.753a211.909,211.909,0,0,0-29.551-38.456q-3.378-3.5-6.873-6.808l-.152-.143c-1.147-1.14-2.74-2.623-4.813-4.415a197.462,197.462,0,0,0-22.463-17.325q2.068-1.22,4.071-2.44c.451-.273.9-.545,1.344-.819a93.972,93.972,0,0,0,25.389,12.589l.02.008c-.267.085-.121.223.44.4a37.338,37.338,0,0,0,3.929.821,85,85,0,0,0,16.615,2.411l.067.008.064,0q2.2.1,4.425.1a107.572,107.572,0,0,0,12.953-.808h.044l.049-.009c16.752-2.044,34.467-7.823,52.888-16.291-9.805,29-28.292,59.941-49.481,85.5l-.141.169h0l-.865.261" fill="#cb426b"/>
      <path id="path122" d="M884.6-132.069a74.349,74.349,0,0,1-12.54-1.337q-3.1-.56-6.377-1.287c-5.815-1.295-12.133-3.005-18.545-4.987l-.48-.149q-2.23-.694-4.42-1.411c-6.485-2.127-12.961-4.491-19-6.944q-3.686-1.5-7.237-3.075c-4.851-2.161-9.248-4.341-12.919-6.447a63.574,63.574,0,0,1-9.724-6.813,25.146,25.146,0,0,1-5-6.129A12.21,12.21,0,0,1,787.137-179a43.834,43.834,0,0,1,2-5.256c.465-.869.985-1.732,1.541-2.592q1.3-1.932,3.64-5.143c.576.3,1.137.584,1.7.867l-.041-.067.011.005c9.461,4.564,18.788,8.9,25.8,9.129q6.834,5.146,17.8,11.827,30.962,11.658,46.449,19.005c.093.1.184.2.275.3a68.92,68.92,0,0,1,4.213,5.631A35.262,35.262,0,0,1,892.45-142c.092.181.179.361.263.539l1.152,3.532s0,.008,0,.011l-.321,2.773a.011.011,0,0,0,0,.007l-1.957,1.905h0a16.576,16.576,0,0,1-6.105,1.158q-.428.01-.876.011" fill="#ce738e"/>
      <path id="path124" d="M368.6-66.369c-6.32-1.863-12.64-3.716-16.553-8.675s-5.432-13.048-6.949-21.138l185.79-228.978C493.313-375.826,455.732-426.5,457.32-468.81c1.207-32.153,25.047-59.479,61.411-59.479,11.489,0,24.228,2.729,37.9,8.892,56.945,25.668,130.049,110.952,101.4,196.4S499-151.962,368.6-66.369" fill="#f7a794"/>
      <path id="path126" d="M664.314-367.539l-.033.033a120.323,120.323,0,0,1-6.255,44.515L653.4-312.25c-35.183,7.239-83.344-.152-124.294-15.107-34.889-47.232-54.381-78.228-59.912-92.493-3.012-7.739-6.247-14.927-8.312-22.155l-2.42-10.692a42.566,42.566,0,0,1-1.289-8.972,79.035,79.035,0,0,1,4.111-27.364,53.635,53.635,0,0,1,9.852-17.408l6.924-7.2a59.511,59.511,0,0,1,17.488-10.516c13.323-5.288,29.113-5.747,47.211-.44a99.229,99.229,0,0,1,25.793,11.311c20.473,13.113,31.857,22.933,36.229,27.32,15.527,15.547,29.688,32.664,40.788,53.019a164.665,164.665,0,0,1,13.061,31.54l3.885,16.639a142.174,142.174,0,0,1,1.8,17.231l-.033.033.033-.033" fill="#f24d7f"/>
      <path id="path128" d="M376.351-71.308C361.632-35.651,346.915,0,337.37,0a4.057,4.057,0,0,1-2.839-1.229c-9.287-8.733-11.575-65.527-6.641-92.1,3.216-17.321,9.5-21.793,16.849-21.793,3.921,0,8.152,1.269,12.376,2.545-1.315,12.067-2.621,24.141.592,31.028s10.929,8.562,18.644,10.239" fill="#f68aad"/>
      <path id="path130" d="M336.083-.231l-.065-.02a3.054,3.054,0,0,1-1.489-.98l-.005-.008.008.008a4.6,4.6,0,0,0,1.552,1M347.6-9.242a144.126,144.126,0,0,0,8.311-15.034A123.726,123.726,0,0,1,347.6-9.242M328.9-15.5l-.015-.057c-.017-.085-.033-.169-.051-.255.021.1.043.208.065.312m-2.352-16.417q-.676-6.987-.969-14.821c.2,5.088.519,10.09.969,14.821" fill="#d8d7d5"/>
      <path id="path132" d="M530.892-325.161c-.528-.693-1.049-1.407-1.577-2.119l.008,0,1.569,2.116h0m-43.9-62.343q-16.112-25.018-19.664-36.527c-.037-.087-.075-.173-.113-.259a.141.141,0,0,1,.013.016q.942,2.2,1.96,4.419s0,0,0,0c2.005,5.172,5.847,12.544,11.591,22.091q2.972,5.1,6.212,10.256" fill="#cbcac8"/>
      <path id="path134" d="M467.23-424.272a.141.141,0,0,0-.013-.016c-.044-.1-.089-.205-.133-.308l.019.023.128.3" fill="#cb426b"/>
      <path id="path136" d="M467.1-424.574l-.019-.023a119.371,119.371,0,0,1-8.624-28.1,42.565,42.565,0,0,1-1.289-8.972q-.052-1.272-.053-2.6,0,1.324.053,2.6a42.565,42.565,0,0,0,1.289,8.972l.013.06a104.3,104.3,0,0,0,2.361,10.437l.045.195c.117.413.24.828.365,1.241a146.606,146.606,0,0,0,5.857,16.189M646.62-430.98c-.144-.273-.288-.545-.433-.819q-2.382-4.536-5.007-8.935,2.878,4.8,5.44,9.753M611.629-479.19q-3.388-3.508-6.873-6.808,3.494,3.3,6.873,6.808" fill="#a93958"/>
      <path id="path138" d="M356.7-84.39c-1.765-6.678-.855-16.425.217-26.347L530.892-325.161h0l-1.569-2.116a311.338,311.338,0,0,0,45.891,12.805q-.046,16.95-10.156,36.471-5.106,14.59-48.043,55.913l-27.265,23.852L405.9-130.924l-31.665,27.416Q361.468-90.376,356.7-84.39M504.764-361.216q-10.25-14.61-17.771-26.287-3.23-5.152-6.212-10.256,8.9,14.8,23.983,36.543m-35.575-58.637q-1.016-2.216-1.96-4.419l-.128-.3a146.6,146.6,0,0,1-5.857-16.189c2.069,6.811,5.105,13.615,7.945,20.909m177-11.945q-.308-.576-.621-1.149-3.676-6.742-7.783-13.028l1.641,2.373q.892,1.428,1.756,2.869,2.62,4.4,5.007,8.935M460.833-442.2a104.321,104.321,0,0,1-2.361-10.437l2.361,10.437m170.36-13.307a263.828,263.828,0,0,0-26.416-30.461q-.082-.084-.168-.168l.147.137q3.48,3.3,6.873,6.808A225.6,225.6,0,0,1,627.7-460.564l3.5,5.059m-34.045-37.281c-4.765-3.94-11.391-8.995-20.121-14.916l.256-.151a220.41,220.41,0,0,1,19.865,15.067" fill="#cd8b7b"/>
      <path id="path140" d="M575.213-314.471a311.334,311.334,0,0,1-45.891-12.805l-.008,0-.008-.012q-13.78-18.584-24.543-33.925-15.116-21.732-23.983-36.543c-5.744-9.547-9.585-16.919-11.591-22.091,0,0,0,0,0,0-2.84-7.295-5.876-14.1-7.945-20.909-.125-.413-.248-.828-.365-1.241l-.045-.195-2.361-10.437-.013-.06a42.568,42.568,0,0,1-1.289-8.972q-.052-1.272-.053-2.6a73.806,73.806,0,0,1,1.349-13.792,28.4,28.4,0,0,0,7.575,3.592,45.082,45.082,0,0,0,13.373,1.813q3.068,0,6.415-.3c27.228-2.161,63.505-18.443,91.2-34.751,8.731,5.921,15.356,10.976,20.121,14.916q1.68,1.42,3.376,2.9,2.062,1.842,4.085,3.752.086.084.168.168a263.842,263.842,0,0,1,26.416,30.461l6.589,9.529q4.1,6.3,7.783,13.028.314.574.621,1.149c.145.273.289.545.433.819q1.106,2.138,2.155,4.305-25.486-11.69-43.681-17.349-17.1-5.312-27.768-5.311-12.1,0-15.952,6.824-9.648,12.222-6.549,36.243.774,15.746,16.94,65.068,4.364,20.884,3.44,25.5c.007.409.011.82.009,1.232" fill="#cb426b"/>
      <path id="path142" d="M327.857-93.148l.027-.18.033-.147c-.009.049-.017.1-.027.147s-.023.12-.033.18" fill="#d8d7d5"/>
      <path id="path144" d="M337.641-113.209a10.9,10.9,0,0,1,2.156-1.078,4.745,4.745,0,0,1,2.6-.668,12.1,12.1,0,0,0-4.76,1.745m13.428-1.059c-.991-.233-1.973-.432-2.944-.579a16.9,16.9,0,0,1,2.944.579" fill="#cbcac8"/>
      <path id="path146" d="M337.269-.073a4.243,4.243,0,0,1-1.185-.157,4.594,4.594,0,0,1-1.552-1l-.008-.008-2.161-3.128-1.888-4.868L328.9-15.5c-.023-.1-.044-.208-.065-.312q-1.442-7.4-2.287-16.105c-.451-4.732-.773-9.733-.969-14.821q-.06-1.632-.1-3.3a258.937,258.937,0,0,1,1.335-36.072l1.049-7.041c.011-.061.021-.12.033-.18s.017-.1.027-.147l1.355-5.875,1.652-4.873,1.908-3.828,2.131-2.887a14.155,14.155,0,0,1,2.679-2.27,12.1,12.1,0,0,1,4.76-1.745c.509-.036,1.085-.054,1.732-.054q1.682,0,3.987.161h.005c.971.147,1.953.345,2.944.579q2.25.57,6.047,1.692h0c-.073.631-.152,1.249-.224,1.868l.024-.029c-1.072,9.921-1.983,19.669-.217,26.347q-2.588,3.248-2.82,4.387a47.261,47.261,0,0,0-6.427,14.239q-3.53,13.692,6.567,26.99.886,2.032,5.584,6.688-1.948,4.237-3.692,7.812A144.117,144.117,0,0,1,347.6-9.242c-.04.058-.079.115-.119.171L344.387-4.84l-2.913,2.992-2.711,1.6a7.074,7.074,0,0,1-1.495.177" fill="#ce738e"/>
      <path id="path148" d="M753.55-618.24l164.465-128.8,20.064,19.861C879.068-636.451,820.066-545.7,753.4-539.033q-4.064.4-8.161.4c-64.46,0-133.766-73.629-155.52-131.668-20.217-53.933.62-94.412,30.829-94.412a37.231,37.231,0,0,1,11.385,1.848C667.846-751.368,710.7-684.8,753.55-618.24" fill="#f7a794"/>
      <path id="path150" d="M916.56-745.061c-.261-8.792-.535-17.585,1.139-24.325,1.223-4.933,3.472-8.761,5.423-8.761.716,0,1.389.513,1.963,1.677,1.855,3.781,2.588,14.4,3.8,14.4.181,0,.369-.229.576-.749,1.6-4.025,4.163-25.365,12.527-27.18a5.959,5.959,0,0,1,1.241-.133c8.451,0,21.3,16.667,21.547,29.8.26,13.791-13.383,23.663-27.023,33.533l-21.2-18.263" fill="#f7a794"/>
      <path id="path152" d="M619.305-764.658q-10.55.462-20.005,7.82-11.65,9.766-15.921,28.869-2.974,25.294-.435,32.356,6.886,30.436,13.324,40.413.966,1.962,2,3.952a170.632,170.632,0,0,0,17.007-5.267,373.282,373.282,0,0,0,53.639-24.867q19.644-11.2,29.777-18.2-22.154-30.04-38.624-45.2-22.1-20.678-40.76-19.875" fill="#3a44a2"/>
      <path id="path154" d="M747.887-538.548c.073-.044.143-.088.215-.132q2.574-.088,5.136-.337-2.834.354-5.351.469m38.135-10.383.575-.291-.46.244-.115.047m30.389-20.511c12.509-10.519,24.805-23.3,36.963-37.688l.3.024a62.607,62.607,0,0,1-5.055,5.529,262.892,262.892,0,0,1-32.208,32.135M640.4-593.452q-4.088-4.182-7.972-8.544c-.008-.033-.015-.064-.023-.1q3.888,4.4,7.995,8.641" fill="#cbcac8"/>
      <path id="path156" d="M748.1-538.68q14.634-9.07,37.7-25.557c12.656-9,25.429-18.445,38.252-28.076q9.82-7.358,20.592-15.552,4.466.39,8.724.736c-12.157,14.387-24.453,27.169-36.963,37.688a178.54,178.54,0,0,1-29.815,20.22l-.575.291-16.1,6.524a129.016,129.016,0,0,1-16.68,3.389q-2.56.248-5.136.337M657.292-577.7q-8.846-7.524-16.892-15.749-4.1-4.232-7.995-8.641c-3.912-16.541-7.9-32.74-12.083-48.057,1.141-3.148,2.4-6.4,3.725-9.717q5.308-2.086,10.587-4.3,3.162,4.894,6.992,10.345a241.13,241.13,0,0,0,54.591,50.356q6.8,4.706,13.076,8.569l-52,17.2" fill="#cd8b7b"/>
      <path id="path158" d="M830.226-867.943q-7.094,1.116-7.951,8.149a45.6,45.6,0,0,0-.764,8.1q.3,17.686-.492,28.4a124.2,124.2,0,0,1-5.853,27.688q-6.308,19.61-21.375,50.028,8.912,67.236,17.751,134.508,82.662,8.652,113.41,6.116,11.43-.68,21.459-1.993,31.964-4.182,49.66-14.987,19.9-9.264,35.321-39.229a128.435,128.435,0,0,0,9.359-30.048l2.085-15.975a154.018,154.018,0,0,0-.8-31.776,124.707,124.707,0,0,0-7.189-28.872l-5.877-12.317q-15.336-23.744-33.935-26.011-11.98-2.79-28.688-.584a162.327,162.327,0,0,0-17.256,3.275q-17.86,3.916-63.429,22.755a40.17,40.17,0,0,1-7.617,2.091,7.3,7.3,0,0,1-2.907-.079l-1.531-1.092q-.836-1.626.2-4.9,12.01-28.8,10.417-34.229a29.591,29.591,0,0,0-1.985-11.568l-2.756-5.7a54.643,54.643,0,0,0-8.181-10.541q-2.036-3.088-16.179-12.687-9.952-6.984-24.9-8.531" fill="#858ed0"/>
      <path id="path160" d="M724.666-737.773a10.3,10.3,0,0,0-6.825,3.957,10.247,10.247,0,0,0-2.052,7.617l15.652,119.132a10.325,10.325,0,0,0,3.952,6.845,10.341,10.341,0,0,0,7.629,2.052v.032l48.055-6.372a10.323,10.323,0,0,0,8.891-11.568L784.315-735.169a10.322,10.322,0,0,0-11.575-8.893l-48.068,6.276-.007.013" fill="#858ed0"/>
      <path id="path162" d="M718.04-734.066q.092-.114.188-.224-.1.11-.188.224m.215-.255a10.358,10.358,0,0,1,6.419-3.465l-.007.013a10.291,10.291,0,0,0-6.412,3.452m6.419-3.465,29.916-3.908h0l-29.92,3.907" fill="#cbcac8"/>
      <path id="path164" d="M733.042-602.753a10.336,10.336,0,0,1-1.6-4.313L715.789-726.2a10.2,10.2,0,0,1-.088-1.335,10.227,10.227,0,0,1,2.14-6.283c.065-.084.131-.168.2-.251s.124-.151.188-.224l.027-.031a10.291,10.291,0,0,1,6.412-3.452l.007-.013h0l29.92-3.907.2.071q-6.918,12.2-6.532,13.173-5.962,14.53-4.571,23.907,10.882,47.458,35.2,55.024a31.78,31.78,0,0,0,8.365,1.408,61.74,61.74,0,0,0,8.332-1.2l3.264,24.8-65.814,21.765" fill="#6a75b6"/>
      <path id="path166" d="M908.354-604.375q-21,0-54.68-2.731h0q33.672,2.73,54.68,2.731,9.634,0,16.6-.575,11.43-.68,21.459-1.993,31.964-4.182,49.66-14.987,19.9-9.264,35.321-39.229a128.435,128.435,0,0,0,9.359-30.048l2.085-15.975q.432-5.666.465-11.257-.03,5.592-.465,11.257l-2.085,15.975a128.435,128.435,0,0,1-9.359,30.048q-15.414,29.97-35.321,39.229-17.7,10.8-49.66,14.987-10.026,1.312-21.459,1.993-6.968.574-16.6.575" fill="#cbcac8"/>
      <path id="path168" d="M809.289-627.968q-1.7-12.56-3.475-25.141L806-653.2q1.66,12.612,3.319,25.219l-.029.011" fill="#cd8b7b"/>
      <path id="path170" d="M908.354-604.375q-21,0-54.68-2.731-4.4-.356-9.024-.76,1.518-1.154,3.057-2.328c.641-.487,1.285-.976,1.927-1.461q17.932-4.94,25.484-9.616a32.1,32.1,0,0,0,5.517-4.129c.113-.105.224-.211.333-.317l.033-.037a21.9,21.9,0,0,0,3.953-5.221l.007-.009,0-.011a20.2,20.2,0,0,0,1.337-3.087h0a29.8,29.8,0,0,0,1.277-10.927,40.868,40.868,0,0,0-1.673-9.864c-2.109-7.321-5.92-13.4-10.112-14.66-.129-.051-.247-.091-.351-.121a1.352,1.352,0,0,0-.431-.089.393.393,0,0,0-.121.016h0a5.357,5.357,0,0,0-.716-.045,6.2,6.2,0,0,0-1.423.171h-.009a8.812,8.812,0,0,0-2.123.828l-.031.012-.156.091c-7.152,4-14.152,17.628-16.521,20.309-.316.356-.549.521-.715.521-1.341,0,1.689-10.589,1.2-14.857-.184-1.631-.879-2.341-1.864-2.341-1.917,0-4.939,2.683-7.481,6.5-3.729,5.6-6.405,13.631-9.049,21.731l-26.688,8.825Q807.66-640.591,806-653.2c.881-.423,1.767-.879,2.643-1.345q5.026-1.736,45.187-26.011,6.368-3.52,12.9-6.385a80.091,80.091,0,0,1,27.2-6.965q1.126-.042,2.252-.041a63.573,63.573,0,0,1,18.989,2.961c2.28.711,4.627,1.56,7.037,2.567.007-.024.035-.035.083-.035a1.519,1.519,0,0,1,.357.073q3.926,1.224,42.575,21.709a93.515,93.515,0,0,0,11.437,4.716c.195.065.379.124.567.177.364.124.729.249,1.1.355a33.866,33.866,0,0,0,10.085,1.579,31.833,31.833,0,0,0,7.587-.921q9.064-1.064,21.2-17.269l23.253-46.227a27.194,27.194,0,0,1,2.395-4.137l.2.073q.292,4.912.263,9.885-.032,5.592-.465,11.257l-2.085,15.975a128.427,128.427,0,0,1-9.359,30.048q-15.414,29.97-35.321,39.229-17.7,10.8-49.66,14.987-10.026,1.312-21.459,1.993-6.968.574-16.6.575" fill="#6a75b6"/>
      <path id="path172" d="M809.523-780.165h-.007q2.1-5.224,3.775-9.913-1.666,4.69-3.768,9.913m12.752-79.629a9.8,9.8,0,0,1,1.808-4.865l.011,0a9.819,9.819,0,0,0-1.819,4.863" fill="#cbcac8"/>
      <path id="path174" d="M812.194-779.994a22.022,22.022,0,0,1-2.671-.171q2.1-5.224,3.768-9.913,1.018-2.86,1.875-5.523a124.2,124.2,0,0,0,5.853-27.688q.576-7.748.575-19.129,0-4.368-.083-9.273a45.6,45.6,0,0,1,.764-8.1h0a9.818,9.818,0,0,1,1.819-4.863l.2.063a28.089,28.089,0,0,1,4.631,2.2,25.222,25.222,0,0,1,7.944,8.537q2.848,5.63,2.783,9.857a142.05,142.05,0,0,1-8.511,42.312,61.834,61.834,0,0,1-7.372,15.153q-3.5,4.556-7.017,5.84a13.58,13.58,0,0,1-4.556.7" fill="#6a75b6"/>
      <path id="path176" d="M621.8-575.119c-7-17.948-14.015-35.895-3.9-67.941s37.335-78.193,28.147-103.652c-5.9-16.341-26.8-24.168-49.688-24.168a102.976,102.976,0,0,0-37.885,7.181c-32.789,13.264-52.772,44.62-76.976,105.729s-52.6,151.964-26.241,177.242c5.876,5.637,14.472,8.017,24.692,8.017,35.632,0,91.009-28.923,119.669-49.633,36.88-26.648,29.531-39.716,22.181-52.776" fill="#3a44a2"/>
      <path id="path178" d="M455.9-480.061a25.73,25.73,0,0,1-6.005-8.071,27.041,27.041,0,0,0,5.369,7.405q.322.308.655.6c-.007.02-.012.041-.019.061" fill="#cbcac8"/>
      <path id="path180" d="M455.943-480.021l-.045-.04c.007-.02.012-.041.019-.061l.044.04c-.005.02-.012.041-.017.061" fill="#cb426b"/>
      <path id="path182" d="M458.327-478.152a24.7,24.7,0,0,1-2.384-1.869c.005-.02.012-.041.017-.061a24.246,24.246,0,0,0,2.38,1.852c0,.027-.009.052-.013.079" fill="#a93958"/>
      <path id="path184" d="M458.466-478.057c-.047-.031-.092-.063-.139-.095,0-.027.009-.052.013-.079l.14.095c-.005.027-.009.052-.015.079" fill="#cd8b7b"/>
      <path id="path186" d="M479.413-472.652a45.082,45.082,0,0,1-13.373-1.813,28.4,28.4,0,0,1-7.575-3.592c.005-.027.009-.052.015-.079,5.62,3.785,12.987,5.427,21.473,5.427q2.858,0,5.875-.243-3.348.3-6.415.3" fill="#a93958"/>
      <path id="path188" d="M581.4-510.32c.451-.275.9-.547,1.341-.821l0,0c-.447.273-.893.545-1.344.819" fill="#a93958"/>
      <path id="path190" d="M444.826-510.737a136.326,136.326,0,0,1,1.741-28.861c0-.025.009-.052.013-.077a155.085,155.085,0,0,0-1.755,28.939" fill="#cbcac8"/>
      <path id="path192" d="M458.155-590.717q7.054-25.03,16.875-50.423c-5.971,16-11.88,33.268-16.875,50.423m18.207-53.972q8.846-23.722,17.468-42.508c-4.041,8.887-8.12,18.605-12.327,29.228-1.7,4.289-3.421,8.731-5.141,13.28" fill="#cbcac8"/>
      <path id="path194" d="M479.953-472.71c-8.487,0-15.853-1.641-21.473-5.427h0l-.14-.095a24.251,24.251,0,0,1-2.38-1.852l-.044-.04q-.332-.3-.655-.6a27.039,27.039,0,0,1-5.369-7.405l-.108-.224a64.715,64.715,0,0,1-4.959-22.381,155.08,155.08,0,0,1,1.755-28.939,496.1,496.1,0,0,1,11.575-51.041c4.995-17.155,10.9-34.423,16.875-50.423.124-.324.251-.648.376-.972q.478-1.3.956-2.577c1.72-4.549,3.441-8.991,5.141-13.28,4.207-10.623,8.285-20.341,12.327-29.228q7.59-16.532,15.011-29.241c-.3.871-.592,1.751-.873,2.648q-2.884,7.67-2.883,11.469c0,.02,0,.037-.007.056a129.016,129.016,0,0,0-2.184,25.977q-.292,10.686,1.048,16.472.152,1.338.325,2.684a234.165,234.165,0,0,0,8.293,38.32,180.787,180.787,0,0,0-18.135,30.684c-15.245,33.489-16.712,70.777-2.7,75.13a9.545,9.545,0,0,0,2.863.423q.388,0,.788-.028c11.4-.775,30.253-18.664,52.079-34.207,2.015,2.789,4.1,5.515,6.227,8.147A156.23,156.23,0,0,0,564.1-526.957a134.483,134.483,0,0,0,13.367,11.952q.606.476,1.216.943l.088.056q1.962,1.48,3.969,2.865c-.445.275-.891.547-1.341.821q-10.76,6.518-23.6,13.165-45.068,21.788-71.968,24.2-3.016.24-5.875.243" fill="#2d3a93"/>
      <path id="path196" d="M639.456-571.805,837.8-637.4l12.175,25.484C772.806-553.356,695.641-494.8,633.692-494.8a86.916,86.916,0,0,1-21.173-2.519c-65-16.269-108.756-114.286-109.624-178.886-.676-50.3,24.633-80.352,49.988-80.352a34.272,34.272,0,0,1,21.045,7.517c29.9,22.972,47.716,100.106,65.528,177.234" fill="#f7a794"/>
      <path id="path198" d="M835.755-636.036c2.727-8.359,5.452-16.717,9.3-22.5,2.543-3.821,5.564-6.5,7.481-6.5.985,0,1.68.711,1.864,2.341.488,4.268-2.543,14.857-1.2,14.857.165,0,.4-.165.715-.521,2.783-3.149,11.959-21.412,20.263-21.412a5.369,5.369,0,0,1,.716.045c8.487,1.112,15.833,22.564,11.411,35.645s-20.6,17.743-36.769,22.412l-13.779-24.365" fill="#f7a794"/>
      <path id="path200" d="M562.656-755.011q-10.1-3.126-21.472.6-14.264,5.246-24.748,21.78-11.36,22.778-11.352,30.311-3.816,30.976-1.143,42.505.25,2.188.552,4.4a171.594,171.594,0,0,0,17.8.821,371.741,371.741,0,0,0,58.879-5.235q22.26-3.906,34.179-7.088-10.69-35.77-21.064-55.584-13.806-26.952-31.627-32.509" fill="#3a44a2"/>
      <path id="path202" d="M629.2-494.9l-.067-.008.131.005-.064,0m17.443-.708.093-.011-.049.009h-.044m-34.124-1.711a37.343,37.343,0,0,1-3.929-.821c-.561-.179-.707-.316-.44-.4l-.02-.008q2.174.676,4.387,1.231h0" fill="#a93958"/>
      <path id="path204" d="M721.148-522.672l-.071-.085c8.767-4.805,17.657-10.1,26.651-15.783l.16-.008q-2.174,1.346-4.163,2.527-11.446,7.28-22.577,13.349" fill="#cbcac8"/>
      <path id="path206" d="M720.745-522.452l-.068-.087.4-.219c.024.028.048.057.071.085l-.4.22" fill="#cd8b7b"/>
      <path id="path208" d="M702.844-513.412q8.818-4.182,17.833-9.127l.068.087q-9.054,4.92-17.9,9.04" fill="#ab7468"/>
      <path id="path210" d="M747.728-538.54l.213-.135.161-.005c-.072.044-.141.088-.215.132l-.16.008" fill="#a8a8a6"/>
      <path id="path212" d="M747.941-538.675c12.452-7.875,25.1-16.491,37.865-25.563q-23.07,16.486-37.7,25.557l-.161.005" fill="#ab7468"/>
      <path id="path214" d="M578.771-514.007l-.088-.056q-.61-.466-1.216-.943c.435.337.867.668,1.3,1M564.1-526.957a156.22,156.22,0,0,1-10.416-11.705q5,6.184,10.416,11.705" fill="#2a3479"/>
      <path id="path216" d="M537.777-561.5c-.017-.031-.036-.06-.053-.091l.053.091m-.095-.159q-.6-.992-1.183-1.992c.392.668.784,1.329,1.183,1.992" fill="#2d3a93"/>
      <path id="path218" d="M824.058-592.313q10.274-7.718,20.583-15.553h.009q-10.772,8.194-20.592,15.552" fill="#ab7468"/>
      <path id="path220" d="M844.65-607.865h-.009l3.067-2.327q-1.536,1.17-3.057,2.328m4.984-3.789.095-.072c9.2-2.656,18.383-5.321,25.389-9.544q-7.552,4.676-25.484,9.616m31-13.745c.124-.119.247-.236.367-.355l-.033.037c-.109.107-.22.212-.333.317m4.32-5.576a.152.152,0,0,0,.011-.02l0,.011-.007.009m2.625-14.033a44.259,44.259,0,0,0-1.673-9.864,40.861,40.861,0,0,1,1.673,9.864M870.435-668.67l.156-.091.031-.012c-.063.033-.125.068-.187.1m5.36-.863a5.656,5.656,0,0,0-.9-.195.392.392,0,0,1,.121-.016,1.353,1.353,0,0,1,.431.089c.1.031.221.071.351.121m-3.051-.068h0" fill="#566198"/>
      <path id="path222" d="M629.266-494.9l-.131-.005q-11.366-1.5-16.615-2.411h0q-2.208-.552-4.387-1.231l-15.179-6.377-14.183-9.08c-.437-.331-.869-.661-1.3-1A140.393,140.393,0,0,1,564.1-526.957q-5.414-5.51-10.416-11.705-.224-.276-.445-.555A206.9,206.9,0,0,1,537.777-561.5l-.053-.091c-.015-.023-.028-.045-.041-.068-.4-.663-.791-1.324-1.183-1.992q-2.116-3.608-4.116-7.336l-8.536-17.429a263.606,263.606,0,0,1-12.936-36.116,229.524,229.524,0,0,1-6.419-30.884,171.609,171.609,0,0,0,17.8.821h0c.416,0,.829-.008,1.245-.015,1.8-.02,3.633-.04,5.516-.051.673,4.091,1.489,8.208,2.445,12.319q12.85,52.568,26.616,69.065a90.949,90.949,0,0,0,17.559,19.736,59.03,59.03,0,0,0,20.756,11.22A72.478,72.478,0,0,0,607.7-539.8a95.826,95.826,0,0,0,12.6.815,109.171,109.171,0,0,0,11.756-.649c.233.021.5.033.795.033q7.186,0,38.816-8.867a.518.518,0,0,0,.16.019q6.022,0,158.786-65.928a95.13,95.13,0,0,0,13.676-6.576l5.251,9.285.195-.056-.095.072-.015,0-1.912,1.457-3.067,2.327h0q-10.3,7.812-20.583,15.553-21.382,16.02-38.252,28.076c-12.763,9.072-25.413,17.688-37.865,25.563l-.213.135c-8.993,5.681-17.884,10.977-26.651,15.783l-.4.219q-9.012,4.928-17.833,9.127a250.191,250.191,0,0,1-37.931,14.245l-18.175,3.548-.093.011-17.379.705" fill="#cd8b7b"/>
      <path id="path224" d="M849.534-611.67l-5.251-9.285q28.092-16.614,24.52-46.628a17.513,17.513,0,0,1,1.632-1.087c.061-.035.124-.069.187-.1l2.123-.828h.009l2.139-.125h0a5.656,5.656,0,0,1,.9.195,18.254,18.254,0,0,1,2.037,1.009,14.773,14.773,0,0,1,3.644,3.847L883.086-662a37.818,37.818,0,0,1,2.612,6.432c.072.232.141.463.209.695a44.251,44.251,0,0,1,1.673,9.864,34.815,34.815,0,0,1-1.277,10.927h0L884.966-631a.152.152,0,0,1-.011.02l-1.791,2.765L881-625.754c-.12.119-.243.236-.367.355a31.842,31.842,0,0,1-5.131,3.884l-.387.245c-7.007,4.223-16.191,6.888-25.389,9.544l-.195.056" fill="#cd8b7b"/>
      <path id="path226" d="M522.289-654.6l1.245-.015c-.416.007-.829.011-1.245.015" fill="#2d3a93"/>
      <path id="path228" d="M569.765-767.006c4.189,7.825,8.381,15.659,16.525,20.927a39.05,39.05,0,0,0,20.023,6.1,19.846,19.846,0,0,0,7.791-1.413c7.556-3.243,10.561-12.371,13.568-21.493-3.953-6.071-7.909-12.127-7.176-23.28s6.143-27.417,11.555-43.681l-37.393-4.689c-2.335,14.3-4.667,28.595-8.813,39.84s-10.115,19.467-16.079,27.688" fill="#f7a794"/>
      <path id="path230" d="M600.7-740.492a40.11,40.11,0,0,1-4.587-1.069l-.38-.148a39.532,39.532,0,0,0,4.967,1.217m-8.34-2.437a29.066,29.066,0,0,1-11.6-7.64,33.285,33.285,0,0,0,5.525,4.489,37.642,37.642,0,0,0,6.072,3.151M575.293-757.4a74.127,74.127,0,0,1-4.4-7.507c1.383,2.556,2.8,5.088,4.4,7.507" fill="#2d3a93"/>
      <path id="path232" d="M577.549-778.217q1.6-2.536,2.952-4.932c-.951,1.7-1.937,3.337-2.952,4.932m12.657-31.872q.41-1.846.819-3.845-.4,1.944-.819,3.845m31.951-21-27.5-3.449,27.476,3.44.024.009" fill="#cbcac8"/>
      <path id="path234" d="M603.14-740.161q-1.21-.122-2.437-.331a39.532,39.532,0,0,1-4.967-1.217l-.08-.031c-1.055-.349-2.124-.731-3.2-1.157l-.1-.032a37.637,37.637,0,0,1-6.072-3.151,33.282,33.282,0,0,1-5.525-4.489,49.425,49.425,0,0,1-5.472-6.831c-1.6-2.419-3.017-4.951-4.4-7.507l-.076-.147-1.052-1.953h0q4.438-5.914,7.784-11.211c1.015-1.595,2-3.232,2.952-4.932a70.384,70.384,0,0,0,5.343-11.545,106.19,106.19,0,0,0,4.363-15.395q.424-1.9.819-3.845,1.8-8.8,3.632-20.6h0l27.5,3.449.175.064c.627,2.616,1.2,5.385,1.7,8.285q.942,4.606,1.716,12.384-5.092,17.066-5.253,24.188h0a28.253,28.253,0,0,0-.1,4.761,45,45,0,0,0-8.865-4.1,16.2,16.2,0,0,0-4.717-.819,7.859,7.859,0,0,0-2.708.437q-10.114,2.76-12.383,16.7a27.573,27.573,0,0,0,.223,7.161l.875,3.881a38.64,38.64,0,0,0,3.539,8.227,70.69,70.69,0,0,0,5.925,8.608l.855,1.145" fill="#cd8b7b"/>
      <path id="path236" d="M603.509-878.945l60.825,10.779c-4.873,36.776-9.744,73.558-24.577,82.16a15.907,15.907,0,0,1-8.091,2.079c-14.5,0-32.795-16.4-39.213-33.237-7.7-20.189,1.679-40.985,11.056-61.78" fill="#f7a794"/>
      <path id="path238" d="M628.124-848.463c7.192,8.243,14.383,16.481,23.8,16.481a17.864,17.864,0,0,0,5.944-1.059c12.483-4.36,28.823-22.965,29.1-32.251.263-8.793-13.869-9.233-28.768-9.233h-2.516c-14.8-4.768-29.591-9.543-41.452-9.543a31.126,31.126,0,0,0-9.529,1.328c-12.788,4.1-19.264,18.468-21.1,31.837s.964,25.74,5.577,33.684,11.061,11.449,17.507,14.961c4.689-4.485,9.377-8.971,9.451-13.113s-4.465-7.951-3.821-12.428c.44-3.059,3.3-6.427,5.907-6.427,1.208,0,2.367.724,3.2,2.539,2.637,5.728,2.056,22.328,4.211,24.051a.644.644,0,0,0,.417.151c2.308,0,6.657-12.113,7.473-20.841.867-9.285-2.265-14.711-5.4-20.137" fill="#100f0d"/>
    </g>
  </g>
</svg>
